0.11m3min_grf.mot
version=1
nRows=25
nColumns 19
inDegrees=yes
endheader
time	1_ground_force_vx	1_ground_force_vy	1_ground_force_vz	1_ground_force_px	1_ground_force_py	1_ground_force_pz	1_ground_torque_x	1_ground_torque_y	1_ground_torque_z	2_ground_force_vx	2_ground_force_vy	2_ground_force_vz	2_ground_force_px	2_ground_force_py	2_ground_force_pz	2_ground_torque_x	2_ground_torque_y	2_ground_torque_z
            2.492500	           69.297301	          342.396354	          -54.374481	           -0.233342	            0.005737	           -0.292037	           -0.312074	           -1.541953	            0.244871	          -67.690444	          178.410777	           -7.452701	           -0.202031	            0.005587	           -0.650903	           -0.341683	            0.900570	           -0.037619
            2.493000	           69.654580	          349.981542	          -57.598700	           -0.233591	            0.005737	           -0.291892	           -0.308673	           -1.550935	            0.255247	          -65.280793	          172.891927	           -6.628723	           -0.200852	            0.005580	           -0.647688	           -0.192383	            0.509513	           -0.019535
            2.493500	           68.315732	          357.205871	          -60.820248	           -0.233540	            0.005736	           -0.291656	           -0.332407	           -1.738074	            0.295936	          -63.252935	          169.394852	           -5.093437	           -0.201329	            0.005573	           -0.646293	           -0.003539	            0.009476	           -0.000285
            2.494000	           66.061093	          363.527152	          -63.676546	           -0.233734	            0.005736	           -0.291744	           -0.322189	           -1.772969	            0.310559	          -61.792683	          167.369633	           -3.740367	           -0.201438	            0.005580	           -0.648181	            0.071481	           -0.193611	            0.004327
            2.494500	           62.572008	          371.103929	          -65.102823	           -0.234162	            0.005733	           -0.291137	           -0.312614	           -1.854059	            0.325258	          -60.712081	          166.633751	           -2.851820	           -0.200125	            0.005589	           -0.649557	           -0.051671	            0.141820	           -0.002427
            2.495000	           59.221420	          378.318628	          -66.164141	           -0.234048	            0.005732	           -0.290744	           -0.283420	           -1.810548	            0.316647	          -60.666812	          167.004209	           -3.413663	           -0.198648	            0.005604	           -0.652288	           -0.254543	            0.700708	           -0.014323
            2.495500	           57.153735	          386.255620	          -67.454828	           -0.234035	            0.005732	           -0.290865	           -0.274996	           -1.858477	            0.324560	          -59.722504	          164.981953	           -3.421289	           -0.199649	            0.005595	           -0.650724	           -0.421880	            1.165433	           -0.024168
            2.496000	           55.679199	          392.755911	          -69.991292	           -0.234306	            0.005732	           -0.290868	           -0.267816	           -1.889147	            0.336657	          -57.798648	          164.249450	           -2.626956	           -0.200248	            0.005591	           -0.650091	           -0.339052	            0.963502	           -0.015410
            2.496500	           54.568037	          400.883942	          -73.759823	           -0.234638	            0.005730	           -0.290444	           -0.264179	           -1.940794	            0.357092	          -54.661872	          164.993361	           -1.499389	           -0.200134	            0.005590	           -0.649619	           -0.123774	            0.373603	           -0.003395
            2.497000	           52.815293	          407.209449	          -77.580342	           -0.234743	            0.005730	           -0.290488	           -0.266003	           -2.050901	            0.390732	          -50.686076	          167.026349	            0.477126	           -0.201906	            0.005589	           -0.651396	            0.047767	           -0.157408	           -0.000450
            2.497500	           49.641896	          414.615035	          -81.117554	           -0.234673	            0.005730	           -0.290366	           -0.249750	           -2.085944	            0.408105	          -46.750692	          167.219343	            1.977808	           -0.202831	            0.005586	           -0.651466	            0.050746	           -0.181510	           -0.002147
            2.498000	           45.691522	          423.458135	          -83.591973	           -0.234709	            0.005728	           -0.290012	           -0.229139	           -2.123607	            0.419207	          -43.894203	          167.776926	            3.433335	           -0.203967	            0.005581	           -0.651109	           -0.053136	            0.203104	            0.004156
            2.498500	           41.789184	          430.315146	          -85.341314	           -0.234976	            0.005727	           -0.289660	           -0.203993	           -2.100572	            0.416591	          -41.744908	          169.440528	            3.860685	           -0.204525	            0.005578	           -0.650949	           -0.176021	            0.714461	            0.016279
            2.499000	           38.252896	          438.434843	          -87.269578	           -0.235086	            0.005727	           -0.289683	           -0.185428	           -2.125279	            0.423033	          -40.532021	          170.917276	            4.100064	           -0.204912	            0.005577	           -0.650989	           -0.234002	            0.986751	            0.023671
            2.499500	           35.999648	          444.032899	          -89.624548	           -0.235392	            0.005727	           -0.289706	           -0.175154	           -2.160413	            0.436062	          -38.158047	          175.161992	            3.926448	           -0.205857	            0.005581	           -0.653142	           -0.156134	            0.716722	            0.016066
            2.500000	           34.707325	          452.517493	          -92.473944	           -0.235763	            0.005725	           -0.289361	           -0.171101	           -2.230826	            0.455879	          -34.924614	          174.988519	            4.205985	           -0.207523	            0.005566	           -0.650510	           -0.084541	            0.423588	            0.010181
            2.500500	           33.138145	          460.284375	          -96.105311	           -0.235631	            0.005725	           -0.289274	           -0.165580	           -2.299886	            0.480206	          -30.995766	          176.843360	            4.445522	           -0.207854	            0.005564	           -0.650269	           -0.022919	            0.130764	            0.003287
            2.501000	           30.422558	          468.592195	          -99.823235	           -0.235894	            0.005723	           -0.288935	           -0.149450	           -2.301940	            0.490378	          -27.401769	          180.719338	            5.630989	           -0.208900	            0.005566	           -0.651880	           -0.018283	            0.120581	            0.003757
            2.501500	           26.564268	          475.272064	         -102.307157	           -0.235939	            0.005722	           -0.288593	           -0.124446	           -2.226517	            0.479281	          -24.737332	          182.565260	            7.091194	           -0.210404	            0.005562	           -0.652256	           -0.034579	            0.255198	            0.009912
            2.502000	           22.706935	          483.572191	         -104.279704	           -0.236024	            0.005721	           -0.288315	           -0.107188	           -2.282694	            0.492251	          -23.435264	          185.509005	            9.165986	           -0.211466	            0.005562	           -0.653442	           -0.078520	            0.621553	            0.030711
            2.502500	           18.896907	          491.329202	         -105.704412	           -0.236111	            0.005721	           -0.288304	           -0.090728	           -2.358972	            0.507509	          -22.693524	          187.899272	           10.957477	           -0.211206	            0.005564	           -0.653624	           -0.095016	            0.786723	            0.045878
            2.503000	           16.184856	          498.369430	         -108.097913	           -0.236279	            0.005720	           -0.288172	           -0.079968	           -2.462404	            0.534103	          -20.639364	          190.110470	           12.653897	           -0.211330	            0.005564	           -0.653696	           -0.067140	            0.618433	            0.041163
            2.503500	           15.076700	          506.852745	         -110.626785	           -0.236393	            0.005721	           -0.288380	           -0.075265	           -2.530275	            0.552263	          -18.352135	          192.510869	           13.177671	           -0.212050	            0.005560	           -0.653306	           -0.049239	            0.516509	            0.035356
            2.504000	           14.014213	          514.435238	         -113.297206	           -0.236575	            0.005720	           -0.288213	           -0.070399	           -2.584215	            0.569137	          -15.271633	          195.833675	           14.032889	           -0.213520	            0.005558	           -0.654259	           -0.032369	            0.415073	            0.029743
            2.504500	           12.125299	          522.019857	         -116.469983	           -0.236609	            0.005720	           -0.288225	           -0.059401	           -2.557354	            0.570582	          -11.767908	          198.787714	           15.449751	           -0.214421	            0.005556	           -0.654666	           -0.016302	            0.275384	            0.021403
